<mxfile host="app.diagrams.net" modified="2024-03-06T14:56:35.794Z" agent="Mozilla/5.0 (Windows NT 10.0; Win64; x64) AppleWebKit/537.36 (KHTML, like Gecko) Chrome/120.0.0.0 Safari/537.36" etag="4v-0aNr0MGrsXOUg8Ot4" version="24.0.2" type="github">
  <diagram name="Page-1" id="vnwUlnCI-Q0gNEeZaqjv">
    <mxGraphModel dx="1173" dy="1724" grid="1" gridSize="10" guides="1" tooltips="1" connect="1" arrows="1" fold="1" page="1" pageScale="1" pageWidth="850" pageHeight="1100" math="0" shadow="0">
      <root>
        <mxCell id="0" />
        <mxCell id="1" parent="0" />
        <mxCell id="fF2t2c74E56Eubhsynd8-1" value="" style="rounded=0;whiteSpace=wrap;html=1;" vertex="1" parent="1">
          <mxGeometry x="180" y="-1040" width="530" height="670" as="geometry" />
        </mxCell>
        <mxCell id="fF2t2c74E56Eubhsynd8-2" value="Murshid&lt;div&gt;&lt;br/&gt;&lt;/div&gt;" style="text;html=1;align=center;verticalAlign=middle;whiteSpace=wrap;rounded=0;" vertex="1" parent="1">
          <mxGeometry x="405" y="-1030" width="60" height="30" as="geometry" />
        </mxCell>
        <mxCell id="fF2t2c74E56Eubhsynd8-3" value="manager" style="shape=umlActor;verticalLabelPosition=bottom;verticalAlign=top;html=1;outlineConnect=0;" vertex="1" parent="1">
          <mxGeometry x="120" y="-960" width="30" height="60" as="geometry" />
        </mxCell>
        <mxCell id="fF2t2c74E56Eubhsynd8-4" value="pilgrim" style="shape=umlActor;verticalLabelPosition=bottom;verticalAlign=top;html=1;outlineConnect=0;" vertex="1" parent="1">
          <mxGeometry x="120" y="-710" width="30" height="60" as="geometry" />
        </mxCell>
        <mxCell id="fF2t2c74E56Eubhsynd8-5" value="Emergency team" style="shape=umlActor;verticalLabelPosition=bottom;verticalAlign=top;html=1;outlineConnect=0;" vertex="1" parent="1">
          <mxGeometry x="750" y="-710" width="30" height="60" as="geometry" />
        </mxCell>
        <mxCell id="fF2t2c74E56Eubhsynd8-6" value="GPS" style="shape=umlActor;verticalLabelPosition=bottom;verticalAlign=top;html=1;outlineConnect=0;" vertex="1" parent="1">
          <mxGeometry x="750" y="-520" width="30" height="60" as="geometry" />
        </mxCell>
        <mxCell id="fF2t2c74E56Eubhsynd8-10" value="add pilgrims to groups" style="ellipse;whiteSpace=wrap;html=1;" vertex="1" parent="1">
          <mxGeometry x="360" y="-1000" width="160" height="50" as="geometry" />
        </mxCell>
        <mxCell id="fF2t2c74E56Eubhsynd8-11" value="add daily schedule for the trip&amp;nbsp;" style="ellipse;whiteSpace=wrap;html=1;" vertex="1" parent="1">
          <mxGeometry x="335" y="-940" width="210" height="40" as="geometry" />
        </mxCell>
        <mxCell id="fF2t2c74E56Eubhsynd8-12" value="view daily report" style="ellipse;whiteSpace=wrap;html=1;" vertex="1" parent="1">
          <mxGeometry x="380" y="-880" width="160" height="40" as="geometry" />
        </mxCell>
        <mxCell id="fF2t2c74E56Eubhsynd8-13" value="View the details of the pilgrimâ€™s&lt;br/&gt;daily trip" style="ellipse;whiteSpace=wrap;html=1;" vertex="1" parent="1">
          <mxGeometry x="357.5" y="-820" width="205" height="60" as="geometry" />
        </mxCell>
        <mxCell id="fF2t2c74E56Eubhsynd8-14" value="" style="endArrow=none;html=1;rounded=0;entryX=0;entryY=1;entryDx=0;entryDy=0;exitX=0.5;exitY=0.5;exitDx=0;exitDy=0;exitPerimeter=0;" edge="1" parent="1" source="fF2t2c74E56Eubhsynd8-3" target="fF2t2c74E56Eubhsynd8-10">
          <mxGeometry width="50" height="50" relative="1" as="geometry">
            <mxPoint x="160" y="-930" as="sourcePoint" />
            <mxPoint x="540" y="-800" as="targetPoint" />
          </mxGeometry>
        </mxCell>
        <mxCell id="fF2t2c74E56Eubhsynd8-15" value="" style="endArrow=none;html=1;rounded=0;" edge="1" parent="1" target="fF2t2c74E56Eubhsynd8-11">
          <mxGeometry width="50" height="50" relative="1" as="geometry">
            <mxPoint x="140" y="-920" as="sourcePoint" />
            <mxPoint x="190" y="-970" as="targetPoint" />
          </mxGeometry>
        </mxCell>
        <mxCell id="fF2t2c74E56Eubhsynd8-16" value="" style="endArrow=none;html=1;rounded=0;exitX=0.5;exitY=0.5;exitDx=0;exitDy=0;exitPerimeter=0;entryX=0;entryY=0.5;entryDx=0;entryDy=0;" edge="1" parent="1" source="fF2t2c74E56Eubhsynd8-3" target="fF2t2c74E56Eubhsynd8-12">
          <mxGeometry width="50" height="50" relative="1" as="geometry">
            <mxPoint x="490" y="-750" as="sourcePoint" />
            <mxPoint x="540" y="-800" as="targetPoint" />
          </mxGeometry>
        </mxCell>
        <mxCell id="fF2t2c74E56Eubhsynd8-17" value="" style="endArrow=none;html=1;rounded=0;exitX=0.5;exitY=0.5;exitDx=0;exitDy=0;exitPerimeter=0;entryX=0;entryY=0.5;entryDx=0;entryDy=0;" edge="1" parent="1" source="fF2t2c74E56Eubhsynd8-4" target="fF2t2c74E56Eubhsynd8-13">
          <mxGeometry width="50" height="50" relative="1" as="geometry">
            <mxPoint x="310" y="-720" as="sourcePoint" />
            <mxPoint x="360" y="-770" as="targetPoint" />
          </mxGeometry>
        </mxCell>
        <mxCell id="fF2t2c74E56Eubhsynd8-18" value="Track group members" style="ellipse;whiteSpace=wrap;html=1;" vertex="1" parent="1">
          <mxGeometry x="365" y="-740" width="175" height="50" as="geometry" />
        </mxCell>
        <mxCell id="fF2t2c74E56Eubhsynd8-19" value="change state to lost" style="ellipse;whiteSpace=wrap;html=1;" vertex="1" parent="1">
          <mxGeometry x="280" y="-700" width="120" height="80" as="geometry" />
        </mxCell>
        <mxCell id="fF2t2c74E56Eubhsynd8-20" value="send notification lost&lt;br&gt;pilgrim&amp;nbsp;" style="ellipse;whiteSpace=wrap;html=1;" vertex="1" parent="1">
          <mxGeometry x="210" y="-570" width="200" height="80" as="geometry" />
        </mxCell>
        <mxCell id="fF2t2c74E56Eubhsynd8-23" value="Track the injured&lt;br/&gt;pilgrim&amp;nbsp;" style="ellipse;whiteSpace=wrap;html=1;" vertex="1" parent="1">
          <mxGeometry x="545" y="-580" width="120" height="80" as="geometry" />
        </mxCell>
        <mxCell id="fF2t2c74E56Eubhsynd8-24" value="change state to injured" style="ellipse;whiteSpace=wrap;html=1;" vertex="1" parent="1">
          <mxGeometry x="500" y="-700" width="120" height="80" as="geometry" />
        </mxCell>
      </root>
    </mxGraphModel>
  </diagram>
</mxfile>
